<?xml version="1.0" standalone="no"?>
<!DOCTYPE svg PUBLIC "-//W3C//DTD SVG 20010904//EN"
 "http://www.w3.org/TR/2001/REC-SVG-20010904/DTD/svg10.dtd">
<svg version="1.0" xmlns="http://www.w3.org/2000/svg"
 width="450.000000pt" height="470.000000pt" viewBox="0 0 450.000000 470.000000"
 preserveAspectRatio="xMidYMid meet">
<metadata>
Created by potrace 1.15, written by Peter Selinger 2001-2017
</metadata>
<g transform="translate(0.000000,470.000000) scale(0.100000,-0.100000)"
fill="#000000" stroke="none">
<path d="M1720 2989 c-33 -37 -35 -46 -19 -82 11 -24 47 -47 72 -47 7 0 51
-52 97 -115 47 -64 115 -154 153 -202 37 -47 67 -89 67 -93 0 -5 -31 -49 -70
-99 -38 -49 -70 -92 -70 -95 0 -7 -277 -373 -344 -456 -34 -41 -65 -81 -70
-87 -6 -10 26 -13 146 -12 l153 0 100 132 c55 72 149 196 208 275 l108 143
196 -258 c107 -142 201 -266 207 -275 10 -16 34 -18 268 -18 l257 0 55 -79
c31 -43 56 -82 56 -85 0 -3 -161 -6 -357 -6 l-358 0 -159 215 c-87 118 -162
213 -166 210 -4 -2 -78 -99 -166 -215 l-159 -210 -364 0 c-346 0 -363 1 -349
18 17 19 660 881 672 900 7 12 -268 382 -284 382 -8 0 -40 -34 -40 -43 0 -4
54 -79 120 -168 66 -89 120 -165 120 -169 0 -5 -162 -225 -360 -489 -198 -264
-360 -483 -360 -486 0 -3 197 -5 438 -5 l438 0 146 194 146 195 19 -22 c10
-12 77 -100 148 -194 l129 -173 438 0 c241 0 438 3 438 6 0 6 -53 77 -170 228
l-45 59 -251 -7 -251 -6 -199 267 c-251 340 -237 322 -249 322 -5 0 -108 -130
-228 -290 l-219 -289 -74 0 c-41 0 -74 2 -74 4 0 5 428 566 485 634 37 46 43
66 23 79 -14 8 -70 80 -232 297 -81 109 -96 134 -96 166 0 41 -19 65 -62 75
-23 6 -33 1 -58 -26z"/>
<path d="M2121 2720 c82 -117 116 -159 126 -157 6 1 41 40 77 87 l66 85 -37 3
c-33 3 -41 -1 -71 -38 l-34 -41 -30 41 c-26 35 -35 40 -70 40 -38 0 -40 -1
-27 -20z"/>
<path d="M2427 2595 l-107 -144 170 -218 c163 -210 170 -220 170 -264 0 -54
24 -82 71 -82 35 0 65 26 74 65 6 22 1 33 -23 58 -17 16 -39 30 -49 30 -16 0
-105 106 -178 214 -52 77 -54 79 -117 163 l-28 36 25 25 c14 13 25 29 25 34 0
5 33 53 73 106 99 131 96 122 45 122 l-43 -1 -108 -144z"/>
<path d="M2754 2650 c-38 -50 -79 -103 -92 -118 -13 -15 -30 -39 -38 -54 -17
-33 -23 -23 179 -291 106 -140 141 -194 139 -212 -3 -25 13 -65 32 -77 6 -4
26 -8 44 -8 67 0 96 77 47 125 -13 14 -33 25 -44 25 -15 0 -62 55 -171 200
-82 110 -150 204 -150 210 0 6 47 74 105 150 l106 140 -44 0 c-43 0 -44 -1
-113 -90z"/>
</g>
</svg>
